<mxfile host="app.diagrams.net" modified="2021-10-02T07:40:48.253Z" agent="5.0 (X11; Linux x86_64) AppleWebKit/537.36 (KHTML, like Gecko) Chrome/94.0.4606.71 Safari/537.36" etag="dGfTHlPnxtV5TAZdI4gA" version="15.4.0" type="github">
  <diagram id="oZy7wKbEqz0-zu5jRp38" name="Page-1">
    <mxGraphModel dx="1468" dy="1935" grid="1" gridSize="10" guides="1" tooltips="1" connect="1" arrows="1" fold="1" page="1" pageScale="1" pageWidth="827" pageHeight="1169" math="0" shadow="0">
      <root>
        <mxCell id="0" />
        <mxCell id="1" parent="0" />
        <mxCell id="ih0MxeRuf-zjSA7udGjn-3" value="" style="edgeStyle=orthogonalEdgeStyle;rounded=0;orthogonalLoop=1;jettySize=auto;html=1;" edge="1" parent="1" source="ih0MxeRuf-zjSA7udGjn-1" target="ih0MxeRuf-zjSA7udGjn-2">
          <mxGeometry relative="1" as="geometry" />
        </mxCell>
        <mxCell id="ih0MxeRuf-zjSA7udGjn-40" value="" style="edgeStyle=orthogonalEdgeStyle;rounded=0;orthogonalLoop=1;jettySize=auto;html=1;" edge="1" parent="1" source="ih0MxeRuf-zjSA7udGjn-1" target="ih0MxeRuf-zjSA7udGjn-39">
          <mxGeometry relative="1" as="geometry" />
        </mxCell>
        <mxCell id="ih0MxeRuf-zjSA7udGjn-1" value="Concurrency" style="rounded=1;whiteSpace=wrap;html=1;gradientColor=#ea6b66;fillColor=#f8cecc;strokeColor=#b85450;" vertex="1" parent="1">
          <mxGeometry x="350" y="370" width="120" height="60" as="geometry" />
        </mxCell>
        <mxCell id="ih0MxeRuf-zjSA7udGjn-7" value="" style="edgeStyle=orthogonalEdgeStyle;rounded=0;orthogonalLoop=1;jettySize=auto;html=1;" edge="1" parent="1" source="ih0MxeRuf-zjSA7udGjn-2" target="ih0MxeRuf-zjSA7udGjn-6">
          <mxGeometry relative="1" as="geometry" />
        </mxCell>
        <mxCell id="ih0MxeRuf-zjSA7udGjn-10" value="" style="edgeStyle=orthogonalEdgeStyle;rounded=0;orthogonalLoop=1;jettySize=auto;html=1;" edge="1" parent="1" source="ih0MxeRuf-zjSA7udGjn-2" target="ih0MxeRuf-zjSA7udGjn-9">
          <mxGeometry relative="1" as="geometry">
            <Array as="points">
              <mxPoint x="-30" y="240" />
              <mxPoint x="-130" y="240" />
            </Array>
          </mxGeometry>
        </mxCell>
        <mxCell id="ih0MxeRuf-zjSA7udGjn-26" value="" style="edgeStyle=orthogonalEdgeStyle;rounded=0;orthogonalLoop=1;jettySize=auto;html=1;" edge="1" parent="1" source="ih0MxeRuf-zjSA7udGjn-2" target="ih0MxeRuf-zjSA7udGjn-25">
          <mxGeometry relative="1" as="geometry" />
        </mxCell>
        <mxCell id="ih0MxeRuf-zjSA7udGjn-62" style="edgeStyle=orthogonalEdgeStyle;rounded=0;orthogonalLoop=1;jettySize=auto;html=1;entryX=0.5;entryY=1;entryDx=0;entryDy=0;" edge="1" parent="1" source="ih0MxeRuf-zjSA7udGjn-2" target="ih0MxeRuf-zjSA7udGjn-61">
          <mxGeometry relative="1" as="geometry">
            <Array as="points">
              <mxPoint x="-30" y="240" />
              <mxPoint x="130" y="240" />
            </Array>
          </mxGeometry>
        </mxCell>
        <mxCell id="ih0MxeRuf-zjSA7udGjn-2" value="Thread" style="rounded=1;whiteSpace=wrap;html=1;gradientColor=#d5739d;fillColor=#e6d0de;strokeColor=#996185;" vertex="1" parent="1">
          <mxGeometry x="-90" y="370" width="120" height="60" as="geometry" />
        </mxCell>
        <mxCell id="ih0MxeRuf-zjSA7udGjn-4" value="Runnable" style="rounded=0;whiteSpace=wrap;html=1;" vertex="1" parent="1">
          <mxGeometry x="-230" y="610" width="120" height="60" as="geometry" />
        </mxCell>
        <mxCell id="ih0MxeRuf-zjSA7udGjn-8" style="edgeStyle=orthogonalEdgeStyle;rounded=0;orthogonalLoop=1;jettySize=auto;html=1;entryX=1;entryY=0.5;entryDx=0;entryDy=0;" edge="1" parent="1" source="ih0MxeRuf-zjSA7udGjn-6" target="ih0MxeRuf-zjSA7udGjn-4">
          <mxGeometry relative="1" as="geometry" />
        </mxCell>
        <mxCell id="ih0MxeRuf-zjSA7udGjn-6" value="Creation" style="rounded=1;whiteSpace=wrap;html=1;gradientColor=#7ea6e0;fillColor=#dae8fc;strokeColor=#6c8ebf;" vertex="1" parent="1">
          <mxGeometry x="-90" y="610" width="120" height="60" as="geometry" />
        </mxCell>
        <mxCell id="ih0MxeRuf-zjSA7udGjn-12" value="" style="edgeStyle=orthogonalEdgeStyle;rounded=0;orthogonalLoop=1;jettySize=auto;html=1;" edge="1" parent="1" source="ih0MxeRuf-zjSA7udGjn-9" target="ih0MxeRuf-zjSA7udGjn-11">
          <mxGeometry relative="1" as="geometry" />
        </mxCell>
        <mxCell id="ih0MxeRuf-zjSA7udGjn-20" style="edgeStyle=orthogonalEdgeStyle;rounded=0;orthogonalLoop=1;jettySize=auto;html=1;entryX=1;entryY=0.5;entryDx=0;entryDy=0;" edge="1" parent="1" source="ih0MxeRuf-zjSA7udGjn-9" target="ih0MxeRuf-zjSA7udGjn-19">
          <mxGeometry relative="1" as="geometry" />
        </mxCell>
        <mxCell id="ih0MxeRuf-zjSA7udGjn-9" value="Termination" style="rounded=1;whiteSpace=wrap;html=1;gradientColor=#7ea6e0;fillColor=#dae8fc;strokeColor=#6c8ebf;" vertex="1" parent="1">
          <mxGeometry x="-190" y="60" width="120" height="60" as="geometry" />
        </mxCell>
        <mxCell id="ih0MxeRuf-zjSA7udGjn-11" value="Thread execution code throws an InterruptedException&amp;nbsp;" style="rounded=1;whiteSpace=wrap;html=1;gradientColor=#97d077;fillColor=#d5e8d4;strokeColor=#82b366;" vertex="1" parent="1">
          <mxGeometry x="-470" y="60" width="210" height="60" as="geometry" />
        </mxCell>
        <mxCell id="ih0MxeRuf-zjSA7udGjn-15" value="" style="edgeStyle=orthogonalEdgeStyle;rounded=0;orthogonalLoop=1;jettySize=auto;html=1;" edge="1" parent="1" source="ih0MxeRuf-zjSA7udGjn-13" target="ih0MxeRuf-zjSA7udGjn-14">
          <mxGeometry relative="1" as="geometry" />
        </mxCell>
        <mxCell id="ih0MxeRuf-zjSA7udGjn-17" value="" style="edgeStyle=orthogonalEdgeStyle;rounded=0;orthogonalLoop=1;jettySize=auto;html=1;" edge="1" parent="1" source="ih0MxeRuf-zjSA7udGjn-13" target="ih0MxeRuf-zjSA7udGjn-16">
          <mxGeometry relative="1" as="geometry" />
        </mxCell>
        <mxCell id="ih0MxeRuf-zjSA7udGjn-13" value="Thread&#39;s code is handling the interrupt signal explicitly" style="rounded=1;whiteSpace=wrap;html=1;gradientColor=#97d077;fillColor=#d5e8d4;strokeColor=#82b366;" vertex="1" parent="1">
          <mxGeometry x="-470" y="120" width="210" height="60" as="geometry" />
        </mxCell>
        <mxCell id="ih0MxeRuf-zjSA7udGjn-14" value="By check Thread.currentThread().isInterrupted()" style="rounded=0;whiteSpace=wrap;html=1;" vertex="1" parent="1">
          <mxGeometry x="-470" y="260" width="210" height="60" as="geometry" />
        </mxCell>
        <mxCell id="ih0MxeRuf-zjSA7udGjn-16" value="Other thread call Thread.interrupt()" style="rounded=0;whiteSpace=wrap;html=1;" vertex="1" parent="1">
          <mxGeometry x="-760" y="120" width="210" height="60" as="geometry" />
        </mxCell>
        <mxCell id="ih0MxeRuf-zjSA7udGjn-22" value="" style="edgeStyle=orthogonalEdgeStyle;rounded=0;orthogonalLoop=1;jettySize=auto;html=1;" edge="1" parent="1" source="ih0MxeRuf-zjSA7udGjn-19" target="ih0MxeRuf-zjSA7udGjn-21">
          <mxGeometry relative="1" as="geometry" />
        </mxCell>
        <mxCell id="ih0MxeRuf-zjSA7udGjn-19" value="Daemon Thread" style="rounded=1;whiteSpace=wrap;html=1;gradientColor=#97d077;fillColor=#d5e8d4;strokeColor=#82b366;" vertex="1" parent="1">
          <mxGeometry x="-490" y="-100" width="210" height="60" as="geometry" />
        </mxCell>
        <mxCell id="ih0MxeRuf-zjSA7udGjn-24" value="" style="edgeStyle=orthogonalEdgeStyle;rounded=0;orthogonalLoop=1;jettySize=auto;html=1;" edge="1" parent="1" source="ih0MxeRuf-zjSA7udGjn-21" target="ih0MxeRuf-zjSA7udGjn-23">
          <mxGeometry relative="1" as="geometry" />
        </mxCell>
        <mxCell id="ih0MxeRuf-zjSA7udGjn-21" value="Doesn&#39;t prevent main application to termination" style="rounded=0;whiteSpace=wrap;html=1;" vertex="1" parent="1">
          <mxGeometry x="-780" y="-100" width="210" height="60" as="geometry" />
        </mxCell>
        <mxCell id="ih0MxeRuf-zjSA7udGjn-23" value="Thread.setDaemon(true)" style="whiteSpace=wrap;html=1;rounded=0;" vertex="1" parent="1">
          <mxGeometry x="-752.5" y="40" width="155" height="60" as="geometry" />
        </mxCell>
        <mxCell id="ih0MxeRuf-zjSA7udGjn-28" value="" style="edgeStyle=orthogonalEdgeStyle;rounded=0;orthogonalLoop=1;jettySize=auto;html=1;" edge="1" parent="1" source="ih0MxeRuf-zjSA7udGjn-25" target="ih0MxeRuf-zjSA7udGjn-27">
          <mxGeometry relative="1" as="geometry" />
        </mxCell>
        <mxCell id="ih0MxeRuf-zjSA7udGjn-32" value="" style="edgeStyle=orthogonalEdgeStyle;rounded=0;orthogonalLoop=1;jettySize=auto;html=1;" edge="1" parent="1" source="ih0MxeRuf-zjSA7udGjn-25" target="ih0MxeRuf-zjSA7udGjn-31">
          <mxGeometry relative="1" as="geometry" />
        </mxCell>
        <mxCell id="ih0MxeRuf-zjSA7udGjn-25" value="Coordination" style="rounded=1;whiteSpace=wrap;html=1;gradientColor=#7ea6e0;fillColor=#dae8fc;strokeColor=#6c8ebf;" vertex="1" parent="1">
          <mxGeometry x="-370" y="370" width="120" height="60" as="geometry" />
        </mxCell>
        <mxCell id="ih0MxeRuf-zjSA7udGjn-27" value="join()" style="rounded=0;whiteSpace=wrap;html=1;" vertex="1" parent="1">
          <mxGeometry x="-735" y="370" width="120" height="60" as="geometry" />
        </mxCell>
        <mxCell id="ih0MxeRuf-zjSA7udGjn-29" value="join(long millis, int nanos)" style="rounded=0;whiteSpace=wrap;html=1;" vertex="1" parent="1">
          <mxGeometry x="-735" y="250" width="120" height="60" as="geometry" />
        </mxCell>
        <mxCell id="ih0MxeRuf-zjSA7udGjn-30" value="join(long millis)" style="rounded=0;whiteSpace=wrap;html=1;" vertex="1" parent="1">
          <mxGeometry x="-735" y="310" width="120" height="60" as="geometry" />
        </mxCell>
        <mxCell id="ih0MxeRuf-zjSA7udGjn-34" value="" style="edgeStyle=orthogonalEdgeStyle;rounded=0;orthogonalLoop=1;jettySize=auto;html=1;" edge="1" parent="1" source="ih0MxeRuf-zjSA7udGjn-31" target="ih0MxeRuf-zjSA7udGjn-33">
          <mxGeometry relative="1" as="geometry" />
        </mxCell>
        <mxCell id="ih0MxeRuf-zjSA7udGjn-31" value="Note" style="rounded=1;whiteSpace=wrap;html=1;gradientColor=#97d077;fillColor=#d5e8d4;strokeColor=#82b366;" vertex="1" parent="1">
          <mxGeometry x="-370" y="510" width="120" height="60" as="geometry" />
        </mxCell>
        <mxCell id="ih0MxeRuf-zjSA7udGjn-33" value="Do not rely on the order of execution" style="rounded=0;whiteSpace=wrap;html=1;" vertex="1" parent="1">
          <mxGeometry x="-780" y="510" width="220" height="60" as="geometry" />
        </mxCell>
        <mxCell id="ih0MxeRuf-zjSA7udGjn-35" value="Always use thread coordination" style="rounded=0;whiteSpace=wrap;html=1;" vertex="1" parent="1">
          <mxGeometry x="-780" y="570" width="220" height="60" as="geometry" />
        </mxCell>
        <mxCell id="ih0MxeRuf-zjSA7udGjn-36" value="Design code for worst case scenario" style="rounded=0;whiteSpace=wrap;html=1;" vertex="1" parent="1">
          <mxGeometry x="-780" y="630" width="220" height="60" as="geometry" />
        </mxCell>
        <mxCell id="ih0MxeRuf-zjSA7udGjn-37" value="Threads may take unreasonably long" style="rounded=0;whiteSpace=wrap;html=1;" vertex="1" parent="1">
          <mxGeometry x="-780" y="690" width="220" height="60" as="geometry" />
        </mxCell>
        <mxCell id="ih0MxeRuf-zjSA7udGjn-38" value="Always use the Thread.join() with timeout" style="rounded=0;whiteSpace=wrap;html=1;" vertex="1" parent="1">
          <mxGeometry x="-780" y="750" width="220" height="60" as="geometry" />
        </mxCell>
        <mxCell id="ih0MxeRuf-zjSA7udGjn-42" value="" style="edgeStyle=orthogonalEdgeStyle;rounded=0;orthogonalLoop=1;jettySize=auto;html=1;" edge="1" parent="1" source="ih0MxeRuf-zjSA7udGjn-39" target="ih0MxeRuf-zjSA7udGjn-41">
          <mxGeometry relative="1" as="geometry" />
        </mxCell>
        <mxCell id="ih0MxeRuf-zjSA7udGjn-46" value="" style="edgeStyle=orthogonalEdgeStyle;rounded=0;orthogonalLoop=1;jettySize=auto;html=1;" edge="1" parent="1" source="ih0MxeRuf-zjSA7udGjn-39" target="ih0MxeRuf-zjSA7udGjn-45">
          <mxGeometry relative="1" as="geometry" />
        </mxCell>
        <mxCell id="ih0MxeRuf-zjSA7udGjn-50" value="" style="edgeStyle=orthogonalEdgeStyle;rounded=0;orthogonalLoop=1;jettySize=auto;html=1;" edge="1" parent="1" source="ih0MxeRuf-zjSA7udGjn-39" target="ih0MxeRuf-zjSA7udGjn-49">
          <mxGeometry relative="1" as="geometry" />
        </mxCell>
        <mxCell id="ih0MxeRuf-zjSA7udGjn-39" value="Performance" style="rounded=1;whiteSpace=wrap;html=1;gradientColor=#d5739d;fillColor=#e6d0de;strokeColor=#996185;" vertex="1" parent="1">
          <mxGeometry x="350" y="510" width="120" height="60" as="geometry" />
        </mxCell>
        <mxCell id="ih0MxeRuf-zjSA7udGjn-44" value="" style="edgeStyle=orthogonalEdgeStyle;rounded=0;orthogonalLoop=1;jettySize=auto;html=1;" edge="1" parent="1" source="ih0MxeRuf-zjSA7udGjn-41" target="ih0MxeRuf-zjSA7udGjn-43">
          <mxGeometry relative="1" as="geometry" />
        </mxCell>
        <mxCell id="ih0MxeRuf-zjSA7udGjn-41" value="Latency" style="rounded=1;whiteSpace=wrap;html=1;gradientColor=#7ea6e0;fillColor=#dae8fc;strokeColor=#6c8ebf;" vertex="1" parent="1">
          <mxGeometry x="350" y="850" width="120" height="60" as="geometry" />
        </mxCell>
        <mxCell id="ih0MxeRuf-zjSA7udGjn-43" value="The time to completion of a task. Measured in time units" style="rounded=0;whiteSpace=wrap;html=1;" vertex="1" parent="1">
          <mxGeometry x="550" y="850" width="120" height="60" as="geometry" />
        </mxCell>
        <mxCell id="ih0MxeRuf-zjSA7udGjn-48" value="" style="edgeStyle=orthogonalEdgeStyle;rounded=0;orthogonalLoop=1;jettySize=auto;html=1;" edge="1" parent="1" source="ih0MxeRuf-zjSA7udGjn-45" target="ih0MxeRuf-zjSA7udGjn-47">
          <mxGeometry relative="1" as="geometry" />
        </mxCell>
        <mxCell id="ih0MxeRuf-zjSA7udGjn-45" value="Throughput" style="rounded=1;whiteSpace=wrap;html=1;gradientColor=#7ea6e0;fillColor=#dae8fc;strokeColor=#6c8ebf;" vertex="1" parent="1">
          <mxGeometry x="690" y="850" width="120" height="60" as="geometry" />
        </mxCell>
        <mxCell id="ih0MxeRuf-zjSA7udGjn-47" value="The amount of task completed in a given period." style="whiteSpace=wrap;html=1;rounded=0;" vertex="1" parent="1">
          <mxGeometry x="930" y="850" width="120" height="60" as="geometry" />
        </mxCell>
        <mxCell id="ih0MxeRuf-zjSA7udGjn-52" value="" style="edgeStyle=orthogonalEdgeStyle;rounded=0;orthogonalLoop=1;jettySize=auto;html=1;" edge="1" parent="1" source="ih0MxeRuf-zjSA7udGjn-49" target="ih0MxeRuf-zjSA7udGjn-51">
          <mxGeometry relative="1" as="geometry" />
        </mxCell>
        <mxCell id="ih0MxeRuf-zjSA7udGjn-49" value="Cost of parallelization and Aggragetion" style="rounded=1;whiteSpace=wrap;html=1;gradientColor=#7ea6e0;fillColor=#dae8fc;strokeColor=#6c8ebf;" vertex="1" parent="1">
          <mxGeometry x="870" y="510" width="120" height="60" as="geometry" />
        </mxCell>
        <mxCell id="ih0MxeRuf-zjSA7udGjn-51" value="Breaking task into multiple tasks" style="rounded=0;whiteSpace=wrap;html=1;" vertex="1" parent="1">
          <mxGeometry x="1070" y="510" width="220" height="60" as="geometry" />
        </mxCell>
        <mxCell id="ih0MxeRuf-zjSA7udGjn-53" value="Thread creation, passing tasks to threads" style="rounded=0;whiteSpace=wrap;html=1;" vertex="1" parent="1">
          <mxGeometry x="1070" y="570" width="220" height="60" as="geometry" />
        </mxCell>
        <mxCell id="ih0MxeRuf-zjSA7udGjn-54" value="Time between thread.start() to thread getting scheduled" style="rounded=0;whiteSpace=wrap;html=1;" vertex="1" parent="1">
          <mxGeometry x="1070" y="630" width="220" height="60" as="geometry" />
        </mxCell>
        <mxCell id="ih0MxeRuf-zjSA7udGjn-55" value="Time until the last thread finished and signals" style="rounded=0;whiteSpace=wrap;html=1;" vertex="1" parent="1">
          <mxGeometry x="1070" y="690" width="220" height="60" as="geometry" />
        </mxCell>
        <mxCell id="ih0MxeRuf-zjSA7udGjn-56" value="Time until the aggregation thread runs" style="rounded=0;whiteSpace=wrap;html=1;" vertex="1" parent="1">
          <mxGeometry x="1070" y="750" width="220" height="60" as="geometry" />
        </mxCell>
        <mxCell id="ih0MxeRuf-zjSA7udGjn-57" value="Aggregation of the sub result into single artifact" style="rounded=0;whiteSpace=wrap;html=1;" vertex="1" parent="1">
          <mxGeometry x="1070" y="810" width="220" height="60" as="geometry" />
        </mxCell>
        <mxCell id="ih0MxeRuf-zjSA7udGjn-61" value="Sharing data" style="rounded=1;whiteSpace=wrap;html=1;gradientColor=#7ea6e0;fillColor=#dae8fc;strokeColor=#6c8ebf;" vertex="1" parent="1">
          <mxGeometry x="70" y="60" width="120" height="60" as="geometry" />
        </mxCell>
        <mxCell id="ih0MxeRuf-zjSA7udGjn-64" value="Process (Context)" style="rounded=0;whiteSpace=wrap;html=1;gradientColor=#7ea6e0;fillColor=#dae8fc;strokeColor=#6c8ebf;labelPosition=center;verticalLabelPosition=top;align=center;verticalAlign=bottom;textDirection=ltr;arcSize=0;" vertex="1" parent="1">
          <mxGeometry x="-16" y="-280" width="556" height="280" as="geometry" />
        </mxCell>
        <mxCell id="ih0MxeRuf-zjSA7udGjn-65" value="Pid Mode&lt;br&gt;&lt;br&gt;&lt;br&gt;&lt;br&gt;&lt;br&gt;&lt;br&gt;&lt;br&gt;&lt;br&gt;Priority" style="rounded=1;whiteSpace=wrap;html=1;gradientColor=#ffd966;fillColor=#fff2cc;strokeColor=#d6b656;" vertex="1" parent="1">
          <mxGeometry x="14" y="-260" width="80" height="190" as="geometry" />
        </mxCell>
        <mxCell id="ih0MxeRuf-zjSA7udGjn-66" value="Files" style="rounded=1;whiteSpace=wrap;html=1;gradientColor=#97d077;fillColor=#d5e8d4;strokeColor=#82b366;" vertex="1" parent="1">
          <mxGeometry x="124" y="-260" width="90" height="60" as="geometry" />
        </mxCell>
        <mxCell id="ih0MxeRuf-zjSA7udGjn-67" value="Files" style="rounded=1;whiteSpace=wrap;html=1;gradientColor=#97d077;fillColor=#d5e8d4;strokeColor=#82b366;" vertex="1" parent="1">
          <mxGeometry x="134" y="-250" width="90" height="60" as="geometry" />
        </mxCell>
        <mxCell id="ih0MxeRuf-zjSA7udGjn-68" value="Files" style="rounded=1;whiteSpace=wrap;html=1;gradientColor=#97d077;fillColor=#d5e8d4;strokeColor=#82b366;" vertex="1" parent="1">
          <mxGeometry x="144" y="-240" width="90" height="60" as="geometry" />
        </mxCell>
        <mxCell id="ih0MxeRuf-zjSA7udGjn-69" value="Data heap" style="rounded=1;whiteSpace=wrap;html=1;gradientColor=#ea6b66;fillColor=#f8cecc;strokeColor=#b85450;" vertex="1" parent="1">
          <mxGeometry x="124" y="-160" width="90" height="60" as="geometry" />
        </mxCell>
        <mxCell id="ih0MxeRuf-zjSA7udGjn-70" value="Code" style="rounded=1;whiteSpace=wrap;html=1;gradientColor=#d5739d;fillColor=#e6d0de;strokeColor=#996185;" vertex="1" parent="1">
          <mxGeometry x="124" y="-80" width="90" height="60" as="geometry" />
        </mxCell>
        <mxCell id="ih0MxeRuf-zjSA7udGjn-71" value="Main Thread" style="rounded=1;whiteSpace=wrap;html=1;gradientColor=#d5739d;fillColor=#E147E6;strokeColor=#996185;labelPosition=center;verticalLabelPosition=top;align=center;verticalAlign=bottom;" vertex="1" parent="1">
          <mxGeometry x="270" y="-250" width="120" height="220" as="geometry" />
        </mxCell>
        <mxCell id="ih0MxeRuf-zjSA7udGjn-72" value="Stack" style="rounded=1;whiteSpace=wrap;html=1;gradientColor=#7ea6e0;fillColor=#dae8fc;strokeColor=#6c8ebf;" vertex="1" parent="1">
          <mxGeometry x="285" y="-220" width="90" height="60" as="geometry" />
        </mxCell>
        <mxCell id="ih0MxeRuf-zjSA7udGjn-73" value="Instruction pointer" style="rounded=1;whiteSpace=wrap;html=1;gradientColor=#7ea6e0;fillColor=#dae8fc;strokeColor=#6c8ebf;" vertex="1" parent="1">
          <mxGeometry x="285" y="-130" width="90" height="60" as="geometry" />
        </mxCell>
        <mxCell id="ih0MxeRuf-zjSA7udGjn-80" value="Thread" style="rounded=1;whiteSpace=wrap;html=1;gradientColor=#d5739d;fillColor=#E147E6;strokeColor=#996185;labelPosition=center;verticalLabelPosition=top;align=center;verticalAlign=bottom;" vertex="1" parent="1">
          <mxGeometry x="400" y="-250" width="120" height="220" as="geometry" />
        </mxCell>
        <mxCell id="ih0MxeRuf-zjSA7udGjn-81" value="Stack" style="rounded=1;whiteSpace=wrap;html=1;gradientColor=#7ea6e0;fillColor=#dae8fc;strokeColor=#6c8ebf;" vertex="1" parent="1">
          <mxGeometry x="415" y="-220" width="90" height="60" as="geometry" />
        </mxCell>
        <mxCell id="ih0MxeRuf-zjSA7udGjn-82" value="Instruction pointer" style="rounded=1;whiteSpace=wrap;html=1;gradientColor=#7ea6e0;fillColor=#dae8fc;strokeColor=#6c8ebf;" vertex="1" parent="1">
          <mxGeometry x="415" y="-130" width="90" height="60" as="geometry" />
        </mxCell>
      </root>
    </mxGraphModel>
  </diagram>
</mxfile>
